# xmcd CD database file
#
# Track frame offsets:
#	150
#	20615
#	31541
#	56041
#	72798
#	86483
#	103426
#	122896
#	147103
#	169048
#	182351
#	193342
#
# Disc length: 2745 seconds
#
# Revision: 0
# Processed by: cddbd v1.4PL0 Copyright (c) Steve Scherf et al.
# Submitted via: CDex 1.50beta9
#
DISCID=a30ab70c
DTITLE=Annette Peacock - The Collection
DYEAR=1900
DGENRE=Jazz
TTITLE0=Don't Be Cruel
TTITLE1=Love's Out To Lunch
TTITLE2=My Mama Never Taught Me
TTITLE3=American Sport
TTITLE4=Dear Bela
TTITLE5=A Loss Of Consciousness
TTITLE6=Rubber Hunger
TTITLE7=This Feel Within
TTITLE8=Too Much In The Skies
TTITLE9=Questions
TTITLE10=What's Like In Your Dreams
TTITLE11=Mexico
EXTD=
EXTT0=
EXTT1=
EXTT2=
EXTT3=
EXTT4=
EXTT5=
EXTT6=
EXTT7=
EXTT8=
EXTT9=
EXTT10=
EXTT11=
PLAYORDER=
